<svg width="82" height="82" viewBox="0 0 82 82" fill="none" xmlns="http://www.w3.org/2000/svg">
<path d="M74.4246 52.0674H8.10379C6.40407 52.0674 5.03297 53.6949 5.05705 55.6839L5.06848 56.6279C5.05945 56.7485 5.05556 56.8707 5.05705 56.9944L5.06528 57.6741C5.05855 57.7796 5.05575 57.8865 5.05705 57.9944L5.12408 63.5299C5.14798 65.5045 6.53854 68.0803 8.22567 68.0448L19.973 67.7972C20.3466 67.7893 20.6939 68.0223 20.8768 68.4036L26.5273 79.1796C27.2716 80.7308 28.8791 81.4026 30.2946 80.7542L75.3501 63.1168C76.6284 62.5313 76.9323 58.1956 76.9323 56.8824C76.9323 56.8824 76.9693 56.1731 76.9072 55.7255C76.6701 54.0153 76.2733 52.0674 74.4246 52.0674Z" fill="black"/>
<path d="M9.48505 54.0674H72.9378C75.095 54.0674 76.7 57.407 73.4691 58.9643C70.2382 60.5216 30.362 74.3263 30.362 74.3263C29.4592 74.69 28.4339 74.3132 27.9591 73.4431L22.5531 63.5362C22.2029 62.8945 21.5385 62.5025 20.8235 62.5158L9.58416 62.7241C8.50806 62.744 7.6211 61.8602 7.60586 60.7527L7.54173 56.0957C7.52637 54.9802 8.40091 54.0674 9.48505 54.0674Z" fill="#BE0F0F"/>
<path fill-rule="evenodd" clip-rule="evenodd" d="M44.313 4.77713C44.8991 3.27195 46.4391 2.36333 48.04 2.57816L61.1696 4.34002C62.6426 4.5377 63.8301 5.64416 64.1314 7.09944L71.3182 41.82C71.404 42.2345 71.356 43.0356 71.356 43.0356L71.3561 44.0356V45.0356C71.3561 45.0356 71.356 45.7164 71.3561 46.0356C71.3182 48.1409 70.0356 50.0295 67.8909 50.0295H55.3173C53.6831 50.0295 52.2665 48.8986 51.9043 47.3052L48.4481 32.0971C48.4088 31.9243 48.3362 31.846 48.2756 31.8016C48.2013 31.7472 48.0896 31.7069 47.9565 31.7079C47.8233 31.709 47.7123 31.7512 47.6389 31.8067C47.579 31.8521 47.5077 31.9315 47.4712 32.105L46.0085 39.0551C45.6676 40.6748 44.2388 41.8344 42.5836 41.8344H38.8679C37.2789 41.8344 35.8892 40.7639 35.4837 39.2276L33.6824 32.4025C33.6366 32.229 33.5606 32.1534 33.4987 32.1117C33.4222 32.0602 33.3083 32.024 33.1739 32.0308C33.0396 32.0375 32.9298 32.0849 32.859 32.1438C32.8015 32.1915 32.7334 32.2743 32.7052 32.4515L30.3781 47.0793C30.1078 48.7787 28.6423 50.0295 26.9216 50.0295H14.1116C11.9718 50.0295 10.6466 48.1038 10.6466 46.0354C10.6466 45.6787 10.6466 45.0354 10.6466 45.0354L10.6466 44.0354L10.6466 43.0354C10.6466 43.0354 10.5979 42.281 10.6705 41.8902L17.1205 7.16536C17.3967 5.67846 18.5967 4.53713 20.0955 4.33573L33.1031 2.588C34.7606 2.36531 36.3439 3.34623 36.8827 4.92928L39.8784 13.7334C40.0287 14.1751 40.6485 14.1884 40.8177 13.7538L44.313 4.77713Z" fill="black"/>
<path d="M12.1453 42.1641L18.5953 7.43918C18.7531 6.58956 19.4388 5.93737 20.2953 5.82228L33.3029 4.07455C34.25 3.9473 35.1548 4.50782 35.4627 5.41249L38.4584 14.2165C39.0595 15.9831 41.5384 16.0369 42.2155 14.298L45.7108 5.3213C46.0457 4.4612 46.9257 3.94199 47.8405 4.06475L60.9701 5.82661C61.8118 5.93956 62.4904 6.57181 62.6626 7.40348L69.8494 42.124C70.1063 43.3653 69.1585 44.5294 67.8909 44.5294H55.3173C54.3835 44.5294 53.574 43.8832 53.367 42.9726L49.9108 27.7646C49.4351 25.6718 46.4454 25.6958 46.0034 27.796L44.5407 34.7461C44.3459 35.6717 43.5294 36.3343 42.5836 36.3343H38.8679C37.9599 36.3343 37.1658 35.7226 36.9341 34.8447L35.1328 28.0197C34.5809 25.9285 31.5637 26.0799 31.2239 28.2158L28.8968 42.8436C28.7423 43.8147 27.9049 44.5294 26.9216 44.5294H14.1116C12.8608 44.5294 11.9168 43.394 12.1453 42.1641Z" fill="#BE0F0F"/>
</svg>
